<?xml version="1.0" standalone="no"?>
<!DOCTYPE svg PUBLIC "-//W3C//DTD SVG 20010904//EN"
 "http://www.w3.org/TR/2001/REC-SVG-20010904/DTD/svg10.dtd">
<svg version="1.0" xmlns="http://www.w3.org/2000/svg"
 width="400.000000pt" height="400.000000pt" viewBox="0 0 400.000000 400.000000"
 preserveAspectRatio="xMidYMid meet">

<g transform="translate(0.000000,400.000000) scale(0.100000,-0.100000)"
fill="#000000" stroke="none">
<path d="M1498 2656 c-53 -14 -106 -52 -138 -97 -21 -29 -50 -107 -50 -136 0
-10 53 -13 280 -13 l280 0 0 -498 c0 -559 1 -569 67 -637 56 -57 113 -79 208
-79 64 -1 90 4 129 23 l49 24 -42 13 c-57 17 -87 38 -108 77 -16 29 -19 75
-23 452 -5 371 -8 424 -23 458 -26 57 -86 117 -142 143 l-50 24 261 0 c311 0
341 6 414 80 45 44 80 118 80 167 0 19 -1122 18 -1192 -1z"/>
</g>
</svg>
